M48
; DRILL file {KiCad (5.1.4)-1} date 2019/11/07 19:18:38
; FORMAT={-:-/ absolute / metric / decimal}
; #@! TF.CreationDate,2019-11-07T19:18:38+09:00
; #@! TF.GenerationSoftware,Kicad,Pcbnew,(5.1.4)-1
; #@! TF.FileFunction,Plated,1,2,PTH
FMAT,2
METRIC
T1C0.400
T2C0.500
T3C0.800
%
G90
G05
T1
X85.09Y-76.2
X85.09Y-78.74
X88.646Y-80.518
X88.9Y-74.93
X95.25Y-74.93
X95.25Y-76.2
X95.25Y-78.74
X95.25Y-80.772
T2
X87.63Y-76.2
X88.63Y-76.2
X89.63Y-76.2
X90.63Y-76.2
X86.36Y-72.39
X87.36Y-72.39
X88.36Y-72.39
X89.36Y-72.39
X90.36Y-72.39
X91.36Y-72.39
X92.36Y-72.39
X93.36Y-72.39
X94.36Y-72.39
X95.36Y-72.39
X86.36Y-82.55
X87.36Y-82.55
X88.36Y-82.55
X89.36Y-82.55
X90.36Y-82.55
X91.36Y-82.55
X92.36Y-82.55
X93.36Y-82.55
X94.36Y-82.55
X95.36Y-82.55
X87.63Y-78.74
X88.63Y-78.74
X89.63Y-78.74
X90.63Y-78.74
T3
X87.63Y-86.36
X95.25Y-86.36
X87.63Y-68.58
X95.25Y-68.58
T0
M30
