M48
; DRILL file {KiCad (5.1.4)-1} date 2019/11/08 15:45:34
; FORMAT={-:-/ absolute / metric / decimal}
; #@! TF.CreationDate,2019-11-08T15:45:34+09:00
; #@! TF.GenerationSoftware,Kicad,Pcbnew,(5.1.4)-1
; #@! TF.FileFunction,Plated,1,2,PTH
FMAT,2
METRIC
T1C0.800
T2C1.000
%
G90
G05
T1
X91.44Y-80.01
X101.6Y-80.01
X91.44Y-64.77
X101.6Y-64.77
T2
X83.82Y-71.12
X83.82Y-73.66
X91.44Y-67.31
X91.44Y-77.47
X101.6Y-69.85
X101.6Y-74.93
X106.68Y-67.31
X106.68Y-77.47
X83.82Y-60.96
X86.36Y-60.96
X88.9Y-60.96
X91.44Y-60.96
X93.98Y-60.96
X96.52Y-60.96
X99.06Y-60.96
X101.6Y-60.96
X104.14Y-60.96
X106.68Y-60.96
X88.9Y-69.85
X91.44Y-69.85
X93.98Y-69.85
X96.52Y-69.85
X83.82Y-83.82
X86.36Y-83.82
X88.9Y-83.82
X91.44Y-83.82
X93.98Y-83.82
X96.52Y-83.82
X99.06Y-83.82
X101.6Y-83.82
X104.14Y-83.82
X106.68Y-83.82
X88.9Y-74.93
X91.44Y-74.93
X93.98Y-74.93
X96.52Y-74.93
T0
M30
