G04 #@! TF.GenerationSoftware,KiCad,Pcbnew,(5.1.4)-1*
G04 #@! TF.CreationDate,2019-11-08T15:45:32+09:00*
G04 #@! TF.ProjectId,MTcircuit,4d546369-7263-4756-9974-2e6b69636164,rev?*
G04 #@! TF.SameCoordinates,Original*
G04 #@! TF.FileFunction,Copper,L2,Bot*
G04 #@! TF.FilePolarity,Positive*
%FSLAX46Y46*%
G04 Gerber Fmt 4.6, Leading zero omitted, Abs format (unit mm)*
G04 Created by KiCad (PCBNEW (5.1.4)-1) date 2019-11-08 15:45:32*
%MOMM*%
%LPD*%
G04 APERTURE LIST*
%ADD10O,1.700000X1.700000*%
%ADD11R,1.700000X1.700000*%
%ADD12O,1.600000X1.600000*%
%ADD13C,1.600000*%
%ADD14C,1.500000*%
%ADD15C,0.250000*%
G04 APERTURE END LIST*
D10*
X96520000Y-74930000D03*
X93980000Y-74930000D03*
X91440000Y-74930000D03*
D11*
X88900000Y-74930000D03*
D12*
X101600000Y-64770000D03*
D13*
X91440000Y-64770000D03*
D12*
X101600000Y-80010000D03*
D13*
X91440000Y-80010000D03*
D10*
X96520000Y-69850000D03*
X93980000Y-69850000D03*
X91440000Y-69850000D03*
D11*
X88900000Y-69850000D03*
D10*
X106680000Y-60960000D03*
X104140000Y-60960000D03*
X101600000Y-60960000D03*
X99060000Y-60960000D03*
X96520000Y-60960000D03*
X93980000Y-60960000D03*
X91440000Y-60960000D03*
X88900000Y-60960000D03*
X86360000Y-60960000D03*
D11*
X83820000Y-60960000D03*
D10*
X106680000Y-83820000D03*
X104140000Y-83820000D03*
X101600000Y-83820000D03*
X99060000Y-83820000D03*
X96520000Y-83820000D03*
X93980000Y-83820000D03*
X91440000Y-83820000D03*
X88900000Y-83820000D03*
X86360000Y-83820000D03*
D11*
X83820000Y-83820000D03*
D14*
X101600000Y-74930000D03*
X91440000Y-67310000D03*
X83820000Y-71120000D03*
X83820000Y-73660000D03*
X101600000Y-69850000D03*
X106680000Y-77470000D03*
X91440000Y-77470000D03*
X106680000Y-67310000D03*
D15*
X83820000Y-60960000D02*
X83820000Y-83820000D01*
X86360000Y-83820000D02*
X86360000Y-74930000D01*
X86360000Y-74930000D02*
X88900000Y-74930000D01*
X91440000Y-83820000D02*
X91440000Y-80010000D01*
X96520000Y-83820000D02*
X96520000Y-74930000D01*
X99060000Y-69850000D02*
X101600000Y-69850000D01*
X99060000Y-69850000D02*
X99060000Y-83820000D01*
X99060000Y-60960000D02*
X99060000Y-69850000D01*
X101600000Y-64770000D02*
X104140000Y-64770000D01*
X104140000Y-64770000D02*
X104140000Y-80010000D01*
X104140000Y-80010000D02*
X101600000Y-80010000D01*
X104140000Y-74930000D02*
X101600000Y-74930000D01*
X101600000Y-64770000D02*
X101600000Y-60960000D01*
X101600000Y-83820000D02*
X101600000Y-80010000D01*
X91440000Y-77470000D02*
X91440000Y-74930000D01*
X106680000Y-83820000D02*
X106680000Y-77470000D01*
X91440000Y-69850000D02*
X91440000Y-67310000D01*
X106680000Y-67310000D02*
X106680000Y-60960000D01*
X96520000Y-60960000D02*
X96520000Y-69850000D01*
X93980000Y-60960000D02*
X93980000Y-69850000D01*
X91440000Y-60960000D02*
X91440000Y-64770000D01*
X86360000Y-60960000D02*
X86360000Y-69850000D01*
X86360000Y-69850000D02*
X88900000Y-69850000D01*
X93980000Y-74930000D02*
X93980000Y-83820000D01*
M02*
